{"title":"Generation P (2011) English Subtitles DVDRip","uid":6543315,"size":2193127456,"categoryP":"video","categoryS":"movies","magnet":"?xt=urn:btih:4f8d937f23eeb9989f48361325a201290e1f32ba&amp;dn=Generation+P+%282011%29+English+Subtitles+DVDRip&amp;tr=udp%3A%2F%2Ftracker.openbittorrent.com%3A80&amp;tr=udp%3A%2F%2Fopen.demonii.com%3A1337&amp;tr=udp%3A%2F%2Ftracker.coppersurfer.tk%3A6969&amp;tr=udp%3A%2F%2Fexodus.desync.com%3A6969","seeders":1,"leechers":0,"uploader":"SuperGOY3000","files":-1,"time":1310768956,"description":"Movie version of cult novel \\&quot;Generation P\\&quot; (1999) written by Victor Pelevin.\n\nGenre: Drama, Sci-fi, Comedy\nYear: 2011\nCountry: Russia\nDirector: Victor Ginzburg\nCast: Vladimir Yepifantsev, Mikhail Efremov, Andrey Fomin, Vladimir Menchov, Alexander Gordon, Oleg Taktarov, Renata Litvinova, Andrei Panin, Sergey Shnurov, Leonid Parfenov.\n\nDescription:\n\nA chronicle of Russia\\'s transition from communism to capitalism. \n\nGeneral\n\nFormat                           : Matroska\nFile size                        : 2.04 GiB\nDuration                         : 1h 52mn\nOverall bit rate                 : 2 603 Kbps\nEncoded date                     : UTC 2011-07-12 16:14:53\nWriting application              : mkvmerge v4.0.0 (\\'The Stars were mine\\') built on Jun  5 2010 17:44:09\nWriting library                  : libebml v1.0.0 + libmatroska v1.0.0\n\nVideo\nID                               : 1\nFormat                           : MPEG-4 Visual\nFormat profile                   : Advanced Simple@L5\nFormat settings, BVOP            : Yes\nFormat settings, QPel            : No\nFormat settings, GMC             : No warppoints\nFormat settings, Matrix          : Custom\nCodec ID                         : XVID\nCodec ID/Hint                    : XviD\nDuration                         : 1h 52mn\nBit rate                         : 2 104 Kbps\nWidth                            : 720 pixels\nHeight                           : 304 pixels\nDisplay aspect ratio             : 2.35:1\nFrame rate                       : 25.000 fps\nColor space                      : YUV\nChroma subsampling               : 4:2:0\nBit depth                        : 8 bits\nScan type                        : Progressive\nBits/(Pixel*Frame)               : 0.384\nStream size                      : 1.65 GiB (81%)\nWriting library                  : XviD 1.2.1 (UTC 2008-12-04)\n\nAudio\nID                               : 2\nFormat                           : AC-3\nFormat/Info                      : Audio Coding 3\nMode extension                   : CM (complete main)\nCodec ID                         : A_AC3\nDuration                         : 1h 52mn\nBit rate mode                    : Constant\nBit rate                         : 448 Kbps\nChannel(s)                       : 6 channels\nChannel positions                : Front: L C R, Side: L R, LFE\nSampling rate                    : 48.0 KHz\nBit depth                        : 16 bits\nStream size                      : 360 MiB (17%)\n\nText\nID                               : 3\nFormat                           : UTF-8\nCodec ID                         : S_TEXT/UTF8\nCodec ID/Info                    : UTF-8 Plain Text\nLanguage                         : English\n\n","torrent":{"xt":"urn:btih:4f8d937f23eeb9989f48361325a201290e1f32ba","amp;dn":"Generation+P+%282011%29+English+Subtitles+DVDRip","amp;tr":["udp%3A%2F%2Ftracker.openbittorrent.com%3A80","udp%3A%2F%2Fopen.demonii.com%3A1337","udp%3A%2F%2Ftracker.coppersurfer.tk%3A6969","udp%3A%2F%2Fexodus.desync.com%3A6969"],"infoHash":"4f8d937f23eeb9989f48361325a201290e1f32ba","infoHashBuffer":{"type":"Buffer","data":[79,141,147,127,35,238,185,152,159,72,54,19,37,162,1,41,14,31,50,186]},"announce":[],"urlList":[]}}